<svg version="1.0" xmlns="http://www.w3.org/2000/svg" viewBox="0 0 1499.000000 269.000000"
 preserveAspectRatio="xMidYMid meet" fill="black"
>
  <g transform="translate(0.000000,269.000000) scale(0.100000,-0.100000)"
  fill="current-color">
    <path d="M3936 2653 c-3 -21 -6 -124 -6 -229 l0 -191 -42 -9 c-30 -6 -46 -16
    -53 -31 -5 -13 -13 -23 -17 -23 -3 0 -14 -7 -22 -16 -13 -12 -16 -39 -16 -125
    l0 -109 -29 0 c-17 0 -33 -4 -36 -10 -9 -15 -25 -12 -25 4 0 20 -172 27 -217
    10 l-33 -13 0 -324 c0 -269 -3 -330 -15 -353 -8 -16 -15 -37 -15 -46 0 -12 -8
    -18 -24 -18 -23 0 -25 -5 -28 -47 -2 -35 -8 -49 -19 -51 -15 -3 -17 15 -23
    135 -3 76 -12 214 -19 308 l-12 170 -40 13 c-27 9 -54 11 -85 5 -38 -7 -45
    -12 -51 -38 -19 -79 -32 -296 -25 -440 6 -148 6 -153 -14 -158 -17 -4 -20 -13
    -20 -61 l0 -56 -40 0 -40 0 0 -220 0 -221 -72 3 -73 3 -3 55 c-2 30 -8 60 -14
    67 -5 7 -10 28 -11 48 l-1 35 -63 0 -63 0 0 208 0 207 -41 22 -42 23 -33 -21
    -34 -21 0 -400 0 -401 -45 6 c-25 2 -54 12 -64 21 -10 9 -25 16 -34 16 -16 0
    -17 41 -17 518 l0 518 -35 17 c-39 19 -140 23 -150 7 -3 -5 -14 -10 -24 -10
    -14 0 -20 10 -25 39 -5 36 -9 40 -45 46 -25 4 -42 13 -48 27 -8 19 -18 21
    -137 22 -127 1 -128 1 -142 -24 -25 -45 -52 -70 -82 -76 -21 -4 -32 -14 -36
    -30 -4 -15 -14 -24 -26 -24 -20 0 -20 -8 -20 -305 l0 -306 -87 3 -88 3 -7 72
    c-4 41 -17 91 -29 114 -13 27 -23 69 -26 118 -3 42 -11 83 -18 91 -7 8 -19 44
    -27 80 l-15 65 -7 -65 c-4 -36 -13 -72 -21 -80 -7 -8 -15 -40 -19 -70 -10 -96
    -18 -124 -42 -147 -20 -19 -24 -32 -24 -85 0 -35 -4 -68 -8 -75 -5 -8 -56 -13
    -152 -15 -80 -2 -152 -6 -160 -8 -11 -4 -16 5 -20 35 -5 38 -33 83 -97 151
    -27 30 -68 40 -89 23 -27 -22 -53 -86 -60 -146 -5 -39 -13 -62 -25 -71 -26
    -18 -37 -70 -45 -194 l-6 -108 -43 0 c-26 0 -47 6 -55 15 -7 8 -19 15 -26 15
    -11 0 -14 38 -14 210 0 178 -2 212 -15 216 -8 4 -15 19 -15 34 0 16 -26 76
    -60 137 -34 59 -66 127 -73 151 -11 42 -27 57 -27 25 0 -25 -44 -115 -63 -132
    -15 -12 -17 -10 -17 15 0 16 -4 34 -8 39 -8 11 -88 65 -97 65 -3 0 -5 -288 -5
    -640 l0 -640 7495 0 7495 0 0 295 0 294 -42 -39 c-37 -34 -42 -44 -44 -87 -1
    -33 -6 -48 -15 -48 -11 0 -14 54 -17 287 -2 276 -3 287 -22 293 -11 4 -20 11
    -20 16 0 16 -28 10 -34 -8 -6 -14 -9 -14 -27 5 -18 20 -40 28 -64 22 -5 -1
    -50 -3 -100 -4 -64 -1 -95 2 -107 12 -15 12 -23 10 -63 -17 -32 -21 -58 -31
    -84 -31 -27 0 -41 -5 -47 -18 -5 -9 -9 -198 -9 -419 0 -221 -3 -405 -7 -409
    -4 -4 -36 -7 -70 -8 l-63 -1 -3 78 c-4 97 -22 94 -22 -4 0 -39 -4 -69 -10 -69
    -6 0 -10 57 -10 150 l0 150 -121 0 -121 0 3 710 c2 516 0 713 -8 721 -6 6 -31
    14 -56 16 -34 4 -58 -1 -107 -23 -63 -28 -80 -49 -80 -99 0 -12 -7 -25 -15
    -29 -12 -4 -15 6 -15 62 -1 43 -6 74 -15 86 -12 16 -15 54 -15 176 0 151 -1
    157 -25 190 -24 33 -25 38 -25 212 0 236 -18 235 -22 -1 -3 -180 -3 -180 -30
    -208 -26 -28 -27 -30 -32 -198 -3 -93 -8 -194 -11 -222 l-7 -53 -89 0 -89 0 0
    -294 0 -295 -47 -3 -48 -3 -3 -542 c-2 -474 -4 -543 -17 -543 -13 0 -15 49
    -15 370 l0 370 -49 0 c-40 0 -50 -3 -54 -20 -4 -16 -14 -20 -51 -20 -35 0 -46
    4 -46 16 0 12 -10 14 -47 12 -46 -3 -48 -4 -51 -35 -3 -29 -7 -33 -31 -33 -19
    0 -30 6 -33 18 -6 22 -108 46 -198 47 l-65 0 -3 -297 -2 -298 -45 0 -45 0 0
    55 c0 54 0 54 -35 61 l-34 6 -3 82 -3 81 -67 3 -68 3 0 114 c0 103 -2 115 -20
    125 -15 8 -20 23 -22 73 l-3 62 -66 3 -66 3 -7 -32 c-3 -17 -6 -46 -6 -65 0
    -30 -3 -33 -32 -36 -32 -3 -33 -5 -40 -58 -3 -30 -6 -178 -7 -327 l-1 -273
    -45 0 -45 0 0 709 c0 650 -1 709 -17 715 -9 4 -38 21 -65 38 l-48 31 -1 171
    c-1 120 -4 158 -10 126 -4 -25 -8 -105 -8 -177 l-1 -133 -24 0 c-17 0 -29 -9
    -38 -27 -12 -26 -19 -28 -83 -33 l-70 -5 -3 -62 -3 -62 -62 -3 -62 -3 -3 -403
    -2 -402 -100 0 -100 0 0 78 c-1 92 -7 99 -115 129 l-70 20 -3 60 c-3 67 -10
    73 -79 73 -22 0 -33 5 -33 14 0 8 -14 16 -32 18 -18 3 -40 8 -49 12 -10 5 -20
    -1 -29 -19 -12 -23 -19 -25 -82 -25 l-68 0 0 -364 0 -363 -57 -12 c-31 -6 -59
    -8 -62 -5 -3 3 -8 97 -11 208 -5 188 -6 203 -27 229 -12 15 -25 41 -28 57 -8
    38 -23 39 -27 2 -3 -26 -5 -27 -76 -32 l-72 -5 0 96 c0 53 -3 111 -6 128 l-7
    31 -113 0 c-102 0 -114 2 -124 20 -18 33 -79 45 -182 33 -56 -6 -94 -16 -99
    -24 -5 -8 -9 -207 -9 -444 0 -281 -4 -425 -10 -415 -5 8 -10 95 -10 193 l0
    178 -47 -3 c-46 -3 -48 -4 -53 -38 -5 -33 -7 -35 -47 -38 l-43 -3 0 -105 0
    -104 -34 0 c-31 0 -34 3 -40 37 -3 21 -6 135 -6 254 0 118 -4 219 -9 225 -5 5
    -14 34 -20 65 -5 31 -20 82 -33 115 l-24 59 -65 8 c-41 5 -77 4 -101 -3 -35
    -10 -39 -15 -55 -70 -25 -83 -43 -79 -43 10 0 63 -2 71 -25 86 -25 16 -25 17
    -25 175 l0 159 -45 0 -44 0 -3 57 -3 56 -55 18 c-67 23 -123 24 -140 4 -7 -8
    -16 -15 -19 -15 -13 0 -51 90 -51 120 0 18 -5 30 -13 30 -20 0 -37 -21 -37
    -45 0 -15 -11 -27 -36 -38 -64 -31 -69 -57 -68 -344 1 -253 1 -253 -20 -253
    -12 0 -28 6 -35 13 -10 10 -16 7 -30 -12 -17 -22 -22 -23 -87 -17 -38 3 -88 9
    -111 12 l-43 6 0 258 0 257 -47 44 c-27 24 -62 62 -80 83 l-32 39 -100 -6
    c-112 -6 -100 -12 -115 63 -2 14 -14 50 -25 80 -16 46 -25 57 -51 64 -23 7
    -29 13 -24 25 4 9 9 43 10 76 2 43 1 53 -5 35 -5 -14 -9 -36 -10 -49 -1 -22
    -27 -91 -71 -186 -10 -22 -21 -71 -24 -110 -3 -38 -10 -104 -16 -145 -5 -41
    -9 -177 -10 -302 l0 -228 -24 0 -25 0 -3 258 -3 257 -48 101 c-36 76 -49 118
    -54 168 -3 37 -9 69 -14 71 -4 3 -10 -21 -14 -52 -9 -85 -22 -130 -64 -208
    -38 -72 -61 -168 -61 -259 l0 -46 -55 0 -55 0 0 -75 0 -75 -85 0 c-77 0 -85 2
    -85 19 0 15 -10 21 -41 26 l-41 7 2 232 c1 127 2 264 1 304 l-1 72 -139 0
    c-83 0 -142 4 -146 10 -10 16 -23 12 -30 -9 -4 -14 -29 -25 -93 -43 l-87 -24
    0 -294 c0 -162 -2 -317 -4 -345 l-3 -50 -9 40 c-4 22 -8 104 -8 181 l-1 142
    -97 4 c-81 4 -110 1 -168 -16 l-70 -22 -1 -159 c-2 -246 -8 -296 -14 -125 l-5
    154 -33 7 c-36 7 -72 35 -72 56 0 10 -20 13 -80 13 l-80 0 0 65 c0 81 -13 90
    -122 89 l-78 -2 0 154 0 154 -164 0 -164 0 -6 -27 c-3 -16 -4 -223 -2 -461 l4
    -432 -23 0 c-23 0 -35 17 -35 50 0 14 -9 20 -32 22 l-33 3 -3 197 -2 197 -28
    3 -27 3 -5 319 c-4 252 -8 320 -18 324 -7 2 -16 -5 -19 -17 -6 -24 -23 -28
    -23 -6 0 12 -14 15 -64 15 -55 0 -67 3 -80 21 -15 21 -15 21 -35 -12 -17 -28
    -21 -51 -21 -134 l0 -100 -30 -17 -30 -17 0 -361 c0 -224 -4 -360 -10 -360
    -18 0 -30 39 -30 99 l0 60 -42 6 c-24 3 -77 5 -118 3 l-75 -3 -3 -240 c-1
    -132 -5 -247 -8 -255 -11 -31 -24 16 -24 93 0 73 -2 80 -29 108 -35 34 -70 38
    -78 8 -3 -12 -17 -22 -33 -26 l-28 -5 -4 -117 c-4 -111 -20 -174 -38 -155 -4
    5 -11 50 -14 99 -3 50 -10 137 -15 195 -6 58 -10 396 -10 751 l-1 647 -24 16
    c-14 8 -26 26 -28 38 -2 19 -12 25 -52 32 l-48 9 3 71 c5 138 -1 386 -10 386
    -4 0 -11 -17 -15 -37z"/>
  </g>
</svg>